<svg version="1.1" id="Layer_1" xmlns="http://www.w3.org/2000/svg" xmlns:xlink="http://www.w3.org/1999/xlink" x="0px" y="0px"
	 width="100%" viewBox="0 0 336 130" enable-background="new 0 0 336 130" xml:space="preserve">
<path fill="#D1D1D1" opacity="1.000000" stroke="none" 
	d="
M220.000000,131.000000 
	C146.666687,131.000000 73.833366,131.000000 1.000039,131.000000 
	C1.000026,87.666695 1.000026,44.333389 1.000013,1.000062 
	C112.999947,1.000041 224.999893,1.000041 336.999878,1.000021 
	C336.999939,44.333267 336.999939,87.666534 336.999969,130.999908 
	C298.166656,131.000000 259.333344,131.000000 220.000000,131.000000 
M61.853775,26.660898 
	C60.439846,25.498409 59.030739,24.330000 57.611179,23.174429 
	C50.382862,17.290339 44.054184,17.188044 36.889896,22.923464 
	C33.252300,25.835569 29.645700,28.791376 26.121468,31.838882 
	C21.361788,35.954716 18.700270,40.992271 18.869289,47.529251 
	C19.088699,56.015072 19.026358,64.512321 18.894346,73.001678 
	C18.799051,79.129791 21.260576,84.054192 25.768028,87.862312 
	C36.191586,96.668701 46.711884,105.364159 57.322227,113.944748 
	C65.951309,120.923088 75.535538,120.945480 84.217537,113.951469 
	C94.455177,105.704269 104.504929,97.223747 114.629929,88.836876 
	C120.228943,84.199036 123.098557,78.297729 122.935875,70.963539 
	C122.865746,67.801620 122.924965,64.636841 122.924950,61.473358 
	C122.924812,37.468307 122.924774,37.468319 104.202126,22.561426 
	C104.071999,22.457819 103.947739,22.346769 103.816528,22.244604 
	C97.827347,17.581184 91.057442,17.553638 85.048592,22.305855 
	C80.232079,26.115084 75.514908,30.049929 70.737274,33.942371 
	C67.805817,31.530050 65.113190,29.314266 61.853775,26.660898 
M307.236603,89.492111 
	C309.496857,89.492111 311.757080,89.492111 314.090942,89.492111 
	C314.090942,69.053482 314.090942,49.297646 314.090942,29.421249 
	C311.038849,29.421249 308.280151,29.421249 304.948700,29.421249 
	C304.948700,36.343414 304.948700,43.022495 304.948700,50.447437 
	C303.280975,49.289371 302.392914,48.601383 301.439209,48.021313 
	C290.056885,41.098598 275.864349,46.456509 273.136902,59.521698 
	C271.901794,65.438141 272.581787,72.080666 273.820404,78.100082 
	C275.197235,84.791130 280.390594,88.629532 287.179901,89.999031 
	C293.560181,91.286018 299.406036,90.213440 304.547791,85.890717 
	C305.265442,87.198784 305.861908,88.285896 307.236603,89.492111 
M184.860153,78.095772 
	C186.559952,90.849701 196.836441,93.872864 212.834869,86.325439 
	C214.507874,97.197090 211.472839,100.814468 200.661514,100.826736 
	C196.216766,100.831779 191.772018,100.827568 187.208923,100.827568 
	C187.208923,103.990715 187.208923,106.574577 187.208923,109.843285 
	C192.388596,109.843285 197.331467,109.850334 202.274323,109.841942 
	C215.777267,109.819023 222.274918,103.435570 222.304291,90.102676 
	C222.332535,77.277405 222.320145,64.452019 222.298218,51.626724 
	C222.295486,50.032345 222.124878,48.438255 222.029434,46.798973 
	C218.788147,46.798973 216.031219,46.798973 212.934616,46.798973 
	C212.934616,55.081936 213.023956,63.058243 212.908722,71.031593 
	C212.800369,78.528931 208.731598,83.045746 202.414093,82.993851 
	C196.414185,82.944572 194.109940,79.793007 194.078140,71.464516 
	C194.047104,63.333920 194.071381,55.203114 194.071381,46.871086 
	C190.789993,46.871086 187.919800,46.871086 184.802338,46.871086 
	C184.802338,57.228622 184.802338,67.204544 184.860153,78.095772 
M143.922729,43.032372 
	C143.922729,58.414661 143.922729,73.796951 143.922729,89.203537 
	C147.281860,89.203537 150.039108,89.203537 153.362885,89.203537 
	C153.362885,80.329361 153.362885,71.770332 153.362885,62.773346 
	C162.179352,62.773346 170.429657,62.773346 178.693405,62.773346 
	C178.693405,59.881969 178.693405,57.455074 178.693405,54.298416 
	C170.078064,54.298416 161.709946,54.298416 153.435043,54.298416 
	C152.317368,40.467293 154.384705,38.183895 167.302582,38.183262 
	C172.706192,38.182999 178.109787,38.183220 183.383469,38.183220 
	C184.399506,29.147943 184.399506,29.147755 176.680344,29.147455 
	C171.688553,29.147261 166.696365,29.106739 161.705078,29.156668 
	C152.168243,29.252064 147.140411,32.970947 143.922729,43.032372 
M253.179276,45.241310 
	C248.320663,46.357700 243.462051,47.474094 238.422440,48.632072 
	C237.163132,43.770931 232.953552,47.239887 229.464554,46.752186 
	C229.464554,61.048603 229.464554,74.939468 229.464554,89.076324 
	C232.668762,89.076324 235.671906,89.076324 238.904526,89.076324 
	C238.904526,80.807411 238.734222,72.990814 238.997406,65.188835 
	C239.088882,62.477238 239.725266,59.502647 241.043777,57.175701 
	C243.382095,53.048943 247.609573,52.312405 251.958527,53.151756 
	C255.898010,53.912083 257.081940,57.057701 257.307922,60.606285 
	C257.518982,63.920364 257.592407,67.246681 257.616943,70.568428 
	C257.663025,76.810120 257.630188,83.052406 257.630188,89.210312 
	C261.199890,89.210312 263.966797,89.210312 267.051483,89.210312 
	C267.051483,79.591858 267.105804,70.294327 267.036682,60.997711 
	C266.963257,51.129162 263.833160,47.428200 253.179276,45.241310 
z"/>
<path fill="#050505" opacity="1.000000" stroke="none" 
	d="
M62.137169,26.879692 
	C65.113190,29.314266 67.805817,31.530050 70.737274,33.942371 
	C75.514908,30.049929 80.232079,26.115084 85.048592,22.305855 
	C91.057442,17.553638 97.827347,17.581184 103.816528,22.244604 
	C103.947739,22.346769 104.071999,22.457819 104.202126,22.561426 
	C122.924774,37.468319 122.924812,37.468307 122.924950,61.473358 
	C122.924965,64.636841 122.865746,67.801620 122.935875,70.963539 
	C123.098557,78.297729 120.228943,84.199036 114.629929,88.836876 
	C104.504929,97.223747 94.455177,105.704269 84.217537,113.951469 
	C75.535538,120.945480 65.951309,120.923088 57.322227,113.944748 
	C46.711884,105.364159 36.191586,96.668701 25.768028,87.862312 
	C21.260576,84.054192 18.799051,79.129791 18.894346,73.001678 
	C19.026358,64.512321 19.088699,56.015072 18.869289,47.529251 
	C18.700270,40.992271 21.361788,35.954716 26.121468,31.838882 
	C29.645700,28.791376 33.252300,25.835569 36.889896,22.923464 
	C44.054184,17.188044 50.382862,17.290339 57.611179,23.174429 
	C59.030739,24.330000 60.439846,25.498409 62.137169,26.879692 
M80.677719,65.198784 
	C81.199028,64.784241 81.729630,64.380814 82.240173,63.953423 
	C86.767860,60.163155 86.772980,59.879845 82.421120,56.168293 
	C80.824730,54.806782 79.230324,53.442944 77.255539,51.756008 
	C80.024582,49.452591 82.261009,47.592228 84.606667,45.641010 
	C87.658409,48.142704 90.396339,50.299927 93.037178,52.570103 
	C98.580978,57.335793 98.590950,62.429050 92.974892,67.272530 
	C87.679176,71.839737 82.306839,76.321144 76.884636,80.737701 
	C72.536118,84.279701 68.727699,84.234581 64.307755,80.588966 
	C58.911800,76.138351 53.559509,71.630478 48.299999,67.019974 
	C42.767155,62.169861 42.930672,57.149582 48.629478,52.395924 
	C53.418968,48.400772 58.235020,44.437469 63.231773,40.300732 
	C61.847965,39.081661 60.868713,38.199425 59.868889,37.341148 
	C47.083534,26.365852 46.021919,26.410851 33.531693,37.985245 
	C29.911396,41.340084 27.975348,45.329849 28.040209,50.327831 
	C28.124523,56.824829 28.055580,63.323727 28.067152,69.821777 
	C28.075939,74.756042 29.818794,78.915955 33.654381,82.111214 
	C42.867290,89.786095 52.020626,97.534439 61.324562,105.097435 
	C67.485535,110.105576 74.265388,109.998253 80.413963,104.947044 
	C89.421608,97.547050 98.313019,90.005707 107.304428,82.585754 
	C111.291481,79.295517 113.345154,75.176735 113.332329,70.003586 
	C113.315811,63.338974 113.316650,56.674194 113.343773,50.009624 
	C113.364853,44.830845 111.318611,40.679283 107.316475,37.426952 
	C105.119270,35.641376 103.028969,33.722755 100.809769,31.966049 
	C95.998253,28.157280 92.648201,28.207125 87.889252,32.161495 
	C78.922707,39.612099 69.983765,47.095936 61.038166,54.571728 
	C54.549110,59.994602 54.552574,59.998749 61.163696,65.546730 
	C70.732063,73.576401 70.732063,73.576401 80.677719,65.198784 
z"/>
<path fill="#040404" opacity="1.000000" stroke="none" 
	d="
M306.847473,89.432564 
	C305.861908,88.285896 305.265442,87.198784 304.547791,85.890717 
	C299.406036,90.213440 293.560181,91.286018 287.179901,89.999031 
	C280.390594,88.629532 275.197235,84.791130 273.820404,78.100082 
	C272.581787,72.080666 271.901794,65.438141 273.136902,59.521698 
	C275.864349,46.456509 290.056885,41.098598 301.439209,48.021313 
	C302.392914,48.601383 303.280975,49.289371 304.948700,50.447437 
	C304.948700,43.022495 304.948700,36.343414 304.948700,29.421249 
	C308.280151,29.421249 311.038849,29.421249 314.090942,29.421249 
	C314.090942,49.297646 314.090942,69.053482 314.090942,89.492111 
	C311.757080,89.492111 309.496857,89.492111 306.847473,89.432564 
M298.943024,54.130024 
	C291.684113,51.480892 286.618561,52.824902 283.591339,58.722740 
	C280.464142,64.815323 280.305054,71.215904 283.609039,77.308266 
	C287.600037,84.667427 297.018494,85.085861 302.178986,78.526939 
	C306.537354,72.987457 306.429108,58.300274 298.943024,54.130024 
z"/>
<path fill="#040404" opacity="1.000000" stroke="none" 
	d="
M184.831238,77.638123 
	C184.802338,67.204544 184.802338,57.228622 184.802338,46.871086 
	C187.919800,46.871086 190.789993,46.871086 194.071381,46.871086 
	C194.071381,55.203114 194.047104,63.333920 194.078140,71.464516 
	C194.109940,79.793007 196.414185,82.944572 202.414093,82.993851 
	C208.731598,83.045746 212.800369,78.528931 212.908722,71.031593 
	C213.023956,63.058243 212.934616,55.081936 212.934616,46.798973 
	C216.031219,46.798973 218.788147,46.798973 222.029434,46.798973 
	C222.124878,48.438255 222.295486,50.032345 222.298218,51.626724 
	C222.320145,64.452019 222.332535,77.277405 222.304291,90.102676 
	C222.274918,103.435570 215.777267,109.819023 202.274323,109.841942 
	C197.331467,109.850334 192.388596,109.843285 187.208923,109.843285 
	C187.208923,106.574577 187.208923,103.990715 187.208923,100.827568 
	C191.772018,100.827568 196.216766,100.831779 200.661514,100.826736 
	C211.472839,100.814468 214.507874,97.197090 212.834869,86.325439 
	C196.836441,93.872864 186.559952,90.849701 184.831238,77.638123 
z"/>
<path fill="#060606" opacity="1.000000" stroke="none" 
	d="
M143.964951,42.597294 
	C147.140411,32.970947 152.168243,29.252064 161.705078,29.156668 
	C166.696365,29.106739 171.688553,29.147261 176.680344,29.147455 
	C184.399506,29.147755 184.399506,29.147943 183.383469,38.183220 
	C178.109787,38.183220 172.706192,38.182999 167.302582,38.183262 
	C154.384705,38.183895 152.317368,40.467293 153.435043,54.298416 
	C161.709946,54.298416 170.078064,54.298416 178.693405,54.298416 
	C178.693405,57.455074 178.693405,59.881969 178.693405,62.773346 
	C170.429657,62.773346 162.179352,62.773346 153.362885,62.773346 
	C153.362885,71.770332 153.362885,80.329361 153.362885,89.203537 
	C150.039108,89.203537 147.281860,89.203537 143.922729,89.203537 
	C143.922729,73.796951 143.922729,58.414661 143.964951,42.597294 
z"/>
<path fill="#080808" opacity="1.000000" stroke="none" 
	d="
M253.596725,45.282982 
	C263.833160,47.428200 266.963257,51.129162 267.036682,60.997711 
	C267.105804,70.294327 267.051483,79.591858 267.051483,89.210312 
	C263.966797,89.210312 261.199890,89.210312 257.630188,89.210312 
	C257.630188,83.052406 257.663025,76.810120 257.616943,70.568428 
	C257.592407,67.246681 257.518982,63.920364 257.307922,60.606285 
	C257.081940,57.057701 255.898010,53.912083 251.958527,53.151756 
	C247.609573,52.312405 243.382095,53.048943 241.043777,57.175701 
	C239.725266,59.502647 239.088882,62.477238 238.997406,65.188835 
	C238.734222,72.990814 238.904526,80.807411 238.904526,89.076324 
	C235.671906,89.076324 232.668762,89.076324 229.464554,89.076324 
	C229.464554,74.939468 229.464554,61.048603 229.464554,46.752186 
	C232.953552,47.239887 237.163132,43.770931 238.422440,48.632072 
	C243.462051,47.474094 248.320663,46.357700 253.596725,45.282982 
z"/>
<path fill="#CECECE" opacity="1.000000" stroke="none" 
	d="
M80.414696,65.433556 
	C70.732063,73.576401 70.732063,73.576401 61.163696,65.546730 
	C54.552574,59.998749 54.549110,59.994602 61.038166,54.571728 
	C69.983765,47.095936 78.922707,39.612099 87.889252,32.161495 
	C92.648201,28.207125 95.998253,28.157280 100.809769,31.966049 
	C103.028969,33.722755 105.119270,35.641376 107.316475,37.426952 
	C111.318611,40.679283 113.364853,44.830845 113.343773,50.009624 
	C113.316650,56.674194 113.315811,63.338974 113.332329,70.003586 
	C113.345154,75.176735 111.291481,79.295517 107.304428,82.585754 
	C98.313019,90.005707 89.421608,97.547050 80.413963,104.947044 
	C74.265388,109.998253 67.485535,110.105576 61.324562,105.097435 
	C52.020626,97.534439 42.867290,89.786095 33.654381,82.111214 
	C29.818794,78.915955 28.075939,74.756042 28.067152,69.821777 
	C28.055580,63.323727 28.124523,56.824829 28.040209,50.327831 
	C27.975348,45.329849 29.911396,41.340084 33.531693,37.985245 
	C46.021919,26.410851 47.083534,26.365852 59.868889,37.341148 
	C60.868713,38.199425 61.847965,39.081661 63.231773,40.300732 
	C58.235020,44.437469 53.418968,48.400772 48.629478,52.395924 
	C42.930672,57.149582 42.767155,62.169861 48.299999,67.019974 
	C53.559509,71.630478 58.911800,76.138351 64.307755,80.588966 
	C68.727699,84.234581 72.536118,84.279701 76.884636,80.737701 
	C82.306839,76.321144 87.679176,71.839737 92.974892,67.272530 
	C98.590950,62.429050 98.580978,57.335793 93.037178,52.570103 
	C90.396339,50.299927 87.658409,48.142704 84.606667,45.641010 
	C82.261009,47.592228 80.024582,49.452591 77.255539,51.756008 
	C79.230324,53.442944 80.824730,54.806782 82.421120,56.168293 
	C86.772980,59.879845 86.767860,60.163155 82.240173,63.953423 
	C81.729630,64.380814 81.199028,64.784241 80.414696,65.433556 
z"/>
<path fill="#CECECE" opacity="1.000000" stroke="none" 
	d="
M299.267212,54.351379 
	C306.429108,58.300274 306.537354,72.987457 302.178986,78.526939 
	C297.018494,85.085861 287.600037,84.667427 283.609039,77.308266 
	C280.305054,71.215904 280.464142,64.815323 283.591339,58.722740 
	C286.618561,52.824902 291.684113,51.480892 299.267212,54.351379 
z"/>
</svg>